<svg viewBox="0 0 297.01 185.7" xmlns="http://www.w3.org/2000/svg">
  <title>Rangefinder camera icon</title>
  <path d="M297,10.77C297,3.3,293.82,0,286.44,0q-82.24,0-164.5,0c-2.31,0-5.19-.24-7.43.32S111.3,2.7,111.4,5.82c.1,1,0,2.12,0,3.31h-9.33v-9H65v8.9H55.57V.15H27.91V9.27H10.53C3.26,9.28,0,12.52,0,19.78v155c0,7.65,3.29,10.92,11,10.92H286c7.68,0,11-3.3,11-10.92ZM169.53,18.53c5.42,0,10.83,0,16.24,0,5.25,0,10.5.05,15.75,0,1.88,0,2.72.55,2.67,2.57-.1,4.58-.07,9.16,0,13.74,0,1.7-.62,2.39-2.35,2.38q-16.25-.06-32.49,0c-1.53,0-2.32-.55-2.3-2.19,0-4.74.05-9.49,0-14.24C167,18.91,168,18.52,169.53,18.53ZM166.85,167a55.33,55.33,0,0,1-53.79-43.07c-.61-2.64-1.53-3.59-4.21-3.31a46.05,46.05,0,0,1-7.24,0c-5.48-.3-8.68-3.75-8.72-9.23s3.15-9,8.62-9.28c2.9-.16,5.83-.11,8.74-.07,1.33,0,2-.23,2.32-1.8A55.59,55.59,0,1,1,166.85,167ZM269.16,43.63c0,2-.6,2.79-2.71,2.76-6.83-.11-13.66,0-20.49,0s-13.67-.07-20.5,0c-2.11,0-2.74-.74-2.72-2.77q.09-15.75,0-31.49c0-2.12.62-2.91,2.86-2.9q20.35.13,40.73,0c2.25,0,2.84.79,2.83,2.91Q269,27.89,269.16,43.63Z" />
  <path d="M167,63.36a48,48,0,1,0,48,48A48,48,0,0,0,167,63.36Zm39,51a3,3,0,0,1-3-3,36,36,0,0,0-36-36,3,3,0,0,1,0-6,42.06,42.06,0,0,1,42,42A3,3,0,0,1,206,114.36Z" />
</svg>